<svg width="1584" height="300" xmlns="http://www.w3.org/2000/svg">
  <defs>
    <filter id="glow">
      <feGaussianBlur stdDeviation="4" result="coloredBlur"/>
      <feMerge>
        <feMergeNode in="coloredBlur"/>
        <feMergeNode in="SourceGraphic"/>
      </feMerge>
    </filter>
    <filter id="bugGlow">
      <feGaussianBlur stdDeviation="3" result="coloredBlur"/>
      <feMerge>
        <feMergeNode in="coloredBlur"/>
        <feMergeNode in="SourceGraphic"/>
      </feMerge>
    </filter>
    <radialGradient id="bugShield">
      <stop offset="0%" style="stop-color:#00ff00;stop-opacity:0.3"/>
      <stop offset="100%" style="stop-color:#008000;stop-opacity:0.1"/>
    </radialGradient>
  </defs>
  <rect width="1584" height="300" fill="none"/>
  <g opacity="0.2">
    <line x1="0" y1="75" x2="1584" y2="75" stroke="#00ff00" stroke-width="0.5"/>
    <line x1="0" y1="150" x2="1584" y2="150" stroke="#00ff00" stroke-width="0.5"/>
    <line x1="0" y1="225" x2="1584" y2="225" stroke="#00ff00" stroke-width="0.5"/>
  </g>
  <path d="M0,200 Q396,180 792,200 T1584,200 L1584,300 L0,300 Z" fill="#00ff00" opacity="0.1">
    <animate attributeName="d" dur="8s" repeatCount="indefinite" values="M0,200 Q396,180 792,200 T1584,200 L1584,300 L0,300 Z;M0,200 Q396,220 792,200 T1584,200 L1584,300 L0,300 Z;M0,200 Q396,180 792,200 T1584,200 L1584,300 L0,300 Z"/>
  </path>
  <text x="200" y="100" font-family="Courier New, monospace" font-size="60" fill="#00ff00" filter="url(#glow)">[</text>
  <text x="792" y="100" font-family="Courier New, monospace" font-size="60" font-weight="bold" fill="#00ff00" text-anchor="middle" filter="url(#glow)">UMAIR AZIZ</text>
  <text x="1344" y="100" font-family="Courier New, monospace" font-size="60" fill="#00ff00" filter="url(#glow)">]</text>
  <text x="792" y="150" font-family="Courier New, monospace" font-size="20" fill="#32cd32" text-anchor="middle" opacity="0.9">Cybersecurity Expert | C3SA Certified Analyst | Ethical Hacker</text>
  <text x="792" y="190" font-family="Courier New, monospace" font-size="16" fill="#00ff00" text-anchor="middle" opacity="0.75">root@security:~$</text>
  <text x="792" y="220" font-family="Courier New, monospace" font-size="14" fill="#32cd32" text-anchor="middle" opacity="0.7" font-style="italic">"The quieter you become, the more you can hear"</text>
  <circle cx="1400" cy="150" r="60" fill="url(#bugShield)" filter="url(#bugGlow)">
    <animate attributeName="opacity" values="0.5;0.8;0.5" dur="3s" repeatCount="indefinite"/>
  </circle>
  <g transform="translate(1370, 120)" filter="url(#bugGlow)">
    <ellipse cx="30" cy="30" rx="20" ry="28" fill="#00ff00">
      <animate attributeName="ry" values="28;30;28" dur="3s" repeatCount="indefinite"/>
    </ellipse>
    <circle cx="30" cy="12" r="10" fill="#008000">
      <animate attributeName="r" values="10;11;10" dur="3s" repeatCount="indefinite"/>
    </circle>
    <line x1="25" y1="8" x2="20" y2="2" stroke="#00ff00" stroke-width="2"/>
    <line x1="35" y1="8" x2="40" y2="2" stroke="#00ff00" stroke-width="2"/>
    <line x1="15" y1="20" x2="5" y2="15" stroke="#00ff00" stroke-width="2"/>
    <line x1="15" y1="30" x2="5" y2="30" stroke="#00ff00" stroke-width="2"/>
    <line x1="15" y1="40" x2="5" y2="45" stroke="#00ff00" stroke-width="2"/>
    <line x1="45" y1="20" x2="55" y2="15" stroke="#00ff00" stroke-width="2"/>
    <line x1="45" y1="30" x2="55" y2="30" stroke="#00ff00" stroke-width="2"/>
    <line x1="45" y1="40" x2="55" y2="45" stroke="#00ff00" stroke-width="2"/>
    <path d="M 20 25 Q 15 30 20 35" fill="none" stroke="#32cd32" stroke-width="1.5" opacity="0.8"/>
    <path d="M 40 25 Q 45 30 40 35" fill="none" stroke="#32cd32" stroke-width="1.5" opacity="0.8"/>
  </g>
</svg>